<mxfile host="Electron" modified="2023-11-20T21:01:53.095Z" agent="Mozilla/5.0 (Windows NT 10.0; Win64; x64) AppleWebKit/537.36 (KHTML, like Gecko) draw.io/22.0.3 Chrome/114.0.5735.289 Electron/25.8.4 Safari/537.36" etag="NlcxNmugo9nu_wU62aNc" version="22.0.3" type="device">
  <diagram name="Page-1" id="D4wtFVfjafIrnCE79yRo">
    <mxGraphModel dx="201" dy="438" grid="1" gridSize="10" guides="1" tooltips="1" connect="1" arrows="1" fold="1" page="1" pageScale="1" pageWidth="850" pageHeight="1100" math="0" shadow="0">
      <root>
        <mxCell id="0" />
        <mxCell id="1" parent="0" />
        <mxCell id="y3W_NTROxU9laTtbLP2f-2" value="Full Control (f):&amp;nbsp;&lt;br&gt;Users with complete control over the site. They can manage permissions, create, edit, and delete content." style="rounded=0;whiteSpace=wrap;html=1;" parent="1" vertex="1">
          <mxGeometry x="51" y="347.5" width="340" height="60" as="geometry" />
        </mxCell>
        <mxCell id="y3W_NTROxU9laTtbLP2f-3" value="Design (d):&lt;br&gt;Users with design-level permissions, allowing them to create and edit lists and libraries, but without full control" style="rounded=0;whiteSpace=wrap;html=1;" parent="1" vertex="1">
          <mxGeometry x="51" y="437.5" width="340" height="60" as="geometry" />
        </mxCell>
        <mxCell id="y3W_NTROxU9laTtbLP2f-4" value="Edit (e):&lt;br&gt;Users with permission to edit existing content, but without the ability to manage site settings." style="rounded=0;whiteSpace=wrap;html=1;" parent="1" vertex="1">
          <mxGeometry x="50" y="520" width="340" height="60" as="geometry" />
        </mxCell>
        <mxCell id="y3W_NTROxU9laTtbLP2f-5" value="Contribute (c):&lt;br&gt; Users can add, edit, and delete items within existing lists and libraries, but can&#39;t alter site structure." style="rounded=0;whiteSpace=wrap;html=1;" parent="1" vertex="1">
          <mxGeometry x="50" y="610" width="340" height="60" as="geometry" />
        </mxCell>
        <mxCell id="y3W_NTROxU9laTtbLP2f-6" value="Read (r)&lt;br&gt;Users can view items and pages but cannot edit or add new content." style="rounded=0;whiteSpace=wrap;html=1;" parent="1" vertex="1">
          <mxGeometry x="50" y="689.38" width="340" height="60" as="geometry" />
        </mxCell>
        <mxCell id="y3W_NTROxU9laTtbLP2f-7" value="Approve (a):&lt;br&gt;Users with the ability to approve items, making them visible to others." style="rounded=0;whiteSpace=wrap;html=1;" parent="1" vertex="1">
          <mxGeometry x="410" y="347.5" width="340" height="60" as="geometry" />
        </mxCell>
        <mxCell id="y3W_NTROxU9laTtbLP2f-8" value="Manage Hierarchy (m):&lt;br&gt;Users with permission to manage site structure, but not necessarily content." style="rounded=0;whiteSpace=wrap;html=1;" parent="1" vertex="1">
          <mxGeometry x="410" y="437.5" width="340" height="60" as="geometry" />
        </mxCell>
        <mxCell id="y3W_NTROxU9laTtbLP2f-9" value="Restricted Read (rr):&lt;br&gt;Limited read access to specific areas or items." style="rounded=0;whiteSpace=wrap;html=1;" parent="1" vertex="1">
          <mxGeometry x="410" y="520" width="340" height="60" as="geometry" />
        </mxCell>
        <mxCell id="y3W_NTROxU9laTtbLP2f-10" value="View only (v):&lt;br&gt;Users can only view content and cannot make changes." style="rounded=0;whiteSpace=wrap;html=1;" parent="1" vertex="1">
          <mxGeometry x="410" y="610" width="340" height="60" as="geometry" />
        </mxCell>
        <mxCell id="y3W_NTROxU9laTtbLP2f-11" value="Records Center Web Service Submitters (rc):&lt;br&gt;Users with permissions to submit content to a Records Center via web services." style="rounded=0;whiteSpace=wrap;html=1;" parent="1" vertex="1">
          <mxGeometry x="410" y="695" width="340" height="60" as="geometry" />
        </mxCell>
        <mxCell id="y3W_NTROxU9laTtbLP2f-12" value="Restricted Interfaces for Translation (tr):&lt;br&gt;Users with restricted interfaces for translation-related tasks." style="rounded=0;whiteSpace=wrap;html=1;" parent="1" vertex="1">
          <mxGeometry x="235" y="775" width="340" height="60" as="geometry" />
        </mxCell>
        <mxCell id="y3W_NTROxU9laTtbLP2f-79" style="rounded=0;orthogonalLoop=1;jettySize=auto;html=1;entryX=0;entryY=0.5;entryDx=0;entryDy=0;exitX=1;exitY=0.5;exitDx=0;exitDy=0;" parent="1" source="y3W_NTROxU9laTtbLP2f-18" target="y3W_NTROxU9laTtbLP2f-74" edge="1">
          <mxGeometry relative="1" as="geometry" />
        </mxCell>
        <mxCell id="y3W_NTROxU9laTtbLP2f-80" style="rounded=0;orthogonalLoop=1;jettySize=auto;html=1;exitX=1;exitY=0.5;exitDx=0;exitDy=0;entryX=0;entryY=0.5;entryDx=0;entryDy=0;entryPerimeter=0;" parent="1" source="y3W_NTROxU9laTtbLP2f-18" target="y3W_NTROxU9laTtbLP2f-75" edge="1">
          <mxGeometry relative="1" as="geometry">
            <mxPoint x="585" y="1295" as="targetPoint" />
          </mxGeometry>
        </mxCell>
        <mxCell id="y3W_NTROxU9laTtbLP2f-81" style="rounded=0;orthogonalLoop=1;jettySize=auto;html=1;entryX=0;entryY=0.5;entryDx=0;entryDy=0;exitX=1;exitY=0.5;exitDx=0;exitDy=0;entryPerimeter=0;" parent="1" source="y3W_NTROxU9laTtbLP2f-18" target="y3W_NTROxU9laTtbLP2f-76" edge="1">
          <mxGeometry relative="1" as="geometry" />
        </mxCell>
        <mxCell id="y3W_NTROxU9laTtbLP2f-18" value="IPRS_HR&lt;br&gt;(Human Resources)" style="rounded=0;whiteSpace=wrap;html=1;points=[[0,0.5,0,0,0],[1,0.5,0,0,0]];" parent="1" vertex="1">
          <mxGeometry x="337" y="1273.75" width="120" height="60" as="geometry" />
        </mxCell>
        <mxCell id="y3W_NTROxU9laTtbLP2f-19" value="Permission levels" style="text;html=1;strokeColor=none;fillColor=none;align=center;verticalAlign=middle;whiteSpace=wrap;rounded=0;fontStyle=1" parent="1" vertex="1">
          <mxGeometry x="345" y="285" width="120" height="30" as="geometry" />
        </mxCell>
        <mxCell id="y3W_NTROxU9laTtbLP2f-21" value="Organizational Teams" style="text;html=1;strokeColor=none;fillColor=none;align=center;verticalAlign=middle;whiteSpace=wrap;rounded=0;fontStyle=1;fontSize=14;" parent="1" vertex="1">
          <mxGeometry x="322" y="1200" width="150" height="30" as="geometry" />
        </mxCell>
        <mxCell id="y3W_NTROxU9laTtbLP2f-22" value="IPRS_AL&lt;br&gt;(Annual Leave)" style="rounded=0;whiteSpace=wrap;html=1;points=[[0,0.5,0,0,0],[1,0.5,0,0,0]];" parent="1" vertex="1">
          <mxGeometry x="337" y="1380" width="120" height="60" as="geometry" />
        </mxCell>
        <mxCell id="y3W_NTROxU9laTtbLP2f-102" style="rounded=0;orthogonalLoop=1;jettySize=auto;html=1;entryX=0;entryY=0.5;entryDx=0;entryDy=0;exitX=1;exitY=0.5;exitDx=0;exitDy=0;" parent="1" source="y3W_NTROxU9laTtbLP2f-24" target="y3W_NTROxU9laTtbLP2f-99" edge="1">
          <mxGeometry relative="1" as="geometry">
            <mxPoint x="458" y="1690" as="sourcePoint" />
          </mxGeometry>
        </mxCell>
        <mxCell id="y3W_NTROxU9laTtbLP2f-103" style="rounded=0;orthogonalLoop=1;jettySize=auto;html=1;entryX=0;entryY=0.5;entryDx=0;entryDy=0;exitX=1;exitY=0.5;exitDx=0;exitDy=0;exitPerimeter=0;" parent="1" source="y3W_NTROxU9laTtbLP2f-24" target="y3W_NTROxU9laTtbLP2f-100" edge="1">
          <mxGeometry relative="1" as="geometry">
            <mxPoint x="450" y="1620" as="sourcePoint" />
          </mxGeometry>
        </mxCell>
        <mxCell id="y3W_NTROxU9laTtbLP2f-104" style="rounded=0;orthogonalLoop=1;jettySize=auto;html=1;entryX=0;entryY=0.5;entryDx=0;entryDy=0;exitX=1;exitY=0.5;exitDx=0;exitDy=0;exitPerimeter=0;" parent="1" source="y3W_NTROxU9laTtbLP2f-24" target="y3W_NTROxU9laTtbLP2f-101" edge="1">
          <mxGeometry relative="1" as="geometry" />
        </mxCell>
        <mxCell id="y3W_NTROxU9laTtbLP2f-24" value="IPRS_PR&lt;br&gt;(Personnel Return)" style="rounded=0;whiteSpace=wrap;html=1;points=[[0,0.5,0,0,0],[1,0.5,0,0,0]];" parent="1" vertex="1">
          <mxGeometry x="337" y="1589.38" width="120" height="60" as="geometry" />
        </mxCell>
        <mxCell id="y3W_NTROxU9laTtbLP2f-106" style="rounded=0;orthogonalLoop=1;jettySize=auto;html=1;entryX=0;entryY=0.5;entryDx=0;entryDy=0;exitX=1;exitY=0.5;exitDx=0;exitDy=0;exitPerimeter=0;" parent="1" source="y3W_NTROxU9laTtbLP2f-25" target="x1B75hsggQtuE2KGZh8V-7" edge="1">
          <mxGeometry relative="1" as="geometry">
            <mxPoint x="578" y="1714.383936170213" as="targetPoint" />
          </mxGeometry>
        </mxCell>
        <mxCell id="x1B75hsggQtuE2KGZh8V-10" style="rounded=0;orthogonalLoop=1;jettySize=auto;html=1;entryX=0;entryY=0.5;entryDx=0;entryDy=0;exitX=1;exitY=0.5;exitDx=0;exitDy=0;exitPerimeter=0;" edge="1" parent="1" source="y3W_NTROxU9laTtbLP2f-25" target="x1B75hsggQtuE2KGZh8V-8">
          <mxGeometry relative="1" as="geometry" />
        </mxCell>
        <mxCell id="y3W_NTROxU9laTtbLP2f-25" value="IPRS_IT&lt;br&gt;(Information Technology)" style="rounded=0;whiteSpace=wrap;html=1;points=[[0,0.5,0,0,0],[1,0.5,0,0,0]];" parent="1" vertex="1">
          <mxGeometry x="337" y="1684.38" width="120" height="60" as="geometry" />
        </mxCell>
        <mxCell id="y3W_NTROxU9laTtbLP2f-124" style="rounded=0;orthogonalLoop=1;jettySize=auto;html=1;entryX=0;entryY=0.5;entryDx=0;entryDy=0;exitX=1;exitY=0.5;exitDx=0;exitDy=0;" parent="1" source="y3W_NTROxU9laTtbLP2f-26" target="y3W_NTROxU9laTtbLP2f-120" edge="1">
          <mxGeometry relative="1" as="geometry" />
        </mxCell>
        <mxCell id="y3W_NTROxU9laTtbLP2f-125" style="rounded=0;orthogonalLoop=1;jettySize=auto;html=1;entryX=0;entryY=0.5;entryDx=0;entryDy=0;exitX=1;exitY=0.5;exitDx=0;exitDy=0;" parent="1" source="y3W_NTROxU9laTtbLP2f-26" target="y3W_NTROxU9laTtbLP2f-121" edge="1">
          <mxGeometry relative="1" as="geometry" />
        </mxCell>
        <mxCell id="y3W_NTROxU9laTtbLP2f-126" style="rounded=0;orthogonalLoop=1;jettySize=auto;html=1;entryX=0;entryY=0.5;entryDx=0;entryDy=0;exitX=1;exitY=0.5;exitDx=0;exitDy=0;" parent="1" source="y3W_NTROxU9laTtbLP2f-26" target="y3W_NTROxU9laTtbLP2f-122" edge="1">
          <mxGeometry relative="1" as="geometry" />
        </mxCell>
        <mxCell id="y3W_NTROxU9laTtbLP2f-26" value="IPRS_INS&lt;br&gt;(Insurance)" style="rounded=0;whiteSpace=wrap;html=1;points=[[0,0.5,0,0,0],[1,0.5,0,0,0]];" parent="1" vertex="1">
          <mxGeometry x="337" y="2292.5" width="120" height="60" as="geometry" />
        </mxCell>
        <mxCell id="y3W_NTROxU9laTtbLP2f-140" style="rounded=0;orthogonalLoop=1;jettySize=auto;html=1;entryX=0;entryY=0.75;entryDx=0;entryDy=0;exitX=1;exitY=0.5;exitDx=0;exitDy=0;exitPerimeter=0;" parent="1" source="y3W_NTROxU9laTtbLP2f-27" target="y3W_NTROxU9laTtbLP2f-136" edge="1">
          <mxGeometry relative="1" as="geometry" />
        </mxCell>
        <mxCell id="y3W_NTROxU9laTtbLP2f-141" style="rounded=0;orthogonalLoop=1;jettySize=auto;html=1;entryX=0;entryY=0.5;entryDx=0;entryDy=0;" parent="1" source="y3W_NTROxU9laTtbLP2f-27" target="y3W_NTROxU9laTtbLP2f-137" edge="1">
          <mxGeometry relative="1" as="geometry" />
        </mxCell>
        <mxCell id="y3W_NTROxU9laTtbLP2f-142" style="rounded=0;orthogonalLoop=1;jettySize=auto;html=1;exitX=1;exitY=0.5;exitDx=0;exitDy=0;exitPerimeter=0;" parent="1" source="y3W_NTROxU9laTtbLP2f-27" target="y3W_NTROxU9laTtbLP2f-138" edge="1">
          <mxGeometry relative="1" as="geometry" />
        </mxCell>
        <mxCell id="y3W_NTROxU9laTtbLP2f-27" value="IPRS_PAY&lt;br&gt;(Payroll)" style="rounded=0;whiteSpace=wrap;html=1;points=[[0,0.5,0,0,0],[1,0.5,0,0,0]];" parent="1" vertex="1">
          <mxGeometry x="337" y="2563" width="120" height="60" as="geometry" />
        </mxCell>
        <mxCell id="y3W_NTROxU9laTtbLP2f-67" style="rounded=0;orthogonalLoop=1;jettySize=auto;html=1;entryX=0.027;entryY=0.467;entryDx=0;entryDy=0;entryPerimeter=0;" parent="1" source="y3W_NTROxU9laTtbLP2f-30" target="y3W_NTROxU9laTtbLP2f-135" edge="1">
          <mxGeometry relative="1" as="geometry">
            <mxPoint x="508" y="2055.625" as="targetPoint" />
          </mxGeometry>
        </mxCell>
        <mxCell id="y3W_NTROxU9laTtbLP2f-30" value="IPRS_WKP&lt;br&gt;(Working Policy)" style="rounded=0;whiteSpace=wrap;html=1;points=[[0,0.5,0,0,0],[1,0.5,0,0,0]];" parent="1" vertex="1">
          <mxGeometry x="337" y="1965" width="120" height="60" as="geometry" />
        </mxCell>
        <mxCell id="y3W_NTROxU9laTtbLP2f-133" style="rounded=0;orthogonalLoop=1;jettySize=auto;html=1;exitX=1;exitY=0.5;exitDx=0;exitDy=0;exitPerimeter=0;" parent="1" source="y3W_NTROxU9laTtbLP2f-31" target="y3W_NTROxU9laTtbLP2f-129" edge="1">
          <mxGeometry relative="1" as="geometry" />
        </mxCell>
        <mxCell id="y3W_NTROxU9laTtbLP2f-134" style="rounded=0;orthogonalLoop=1;jettySize=auto;html=1;entryX=0;entryY=0.5;entryDx=0;entryDy=0;exitX=1;exitY=0.5;exitDx=0;exitDy=0;exitPerimeter=0;" parent="1" source="y3W_NTROxU9laTtbLP2f-31" target="y3W_NTROxU9laTtbLP2f-130" edge="1">
          <mxGeometry relative="1" as="geometry" />
        </mxCell>
        <mxCell id="y3W_NTROxU9laTtbLP2f-31" value="IPRS_BEN&lt;br&gt;(Benefits)" style="rounded=0;whiteSpace=wrap;html=1;points=[[0,0.5,0,0,0],[1,0.5,0,0,0]];" parent="1" vertex="1">
          <mxGeometry x="337" y="2405" width="120" height="60" as="geometry" />
        </mxCell>
        <mxCell id="y3W_NTROxU9laTtbLP2f-60" style="rounded=0;orthogonalLoop=1;jettySize=auto;html=1;strokeColor=default;" parent="1" source="y3W_NTROxU9laTtbLP2f-32" target="y3W_NTROxU9laTtbLP2f-107" edge="1">
          <mxGeometry relative="1" as="geometry">
            <mxPoint x="558" y="1888.75" as="targetPoint" />
          </mxGeometry>
        </mxCell>
        <mxCell id="y3W_NTROxU9laTtbLP2f-32" value="IPRS_EDU&lt;br&gt;(Education)" style="rounded=0;whiteSpace=wrap;html=1;points=[[0,0.5,0,0,0],[1,0.5,0,0,0]];" parent="1" vertex="1">
          <mxGeometry x="337" y="1780" width="120" height="60" as="geometry" />
        </mxCell>
        <mxCell id="y3W_NTROxU9laTtbLP2f-35" value="Permission Groups" style="text;html=1;strokeColor=none;fillColor=none;align=center;verticalAlign=middle;whiteSpace=wrap;rounded=0;fontStyle=1;fontSize=14;" parent="1" vertex="1">
          <mxGeometry x="588" y="1200" width="150" height="30" as="geometry" />
        </mxCell>
        <mxCell id="y3W_NTROxU9laTtbLP2f-92" style="rounded=0;orthogonalLoop=1;jettySize=auto;html=1;entryX=0;entryY=0.5;entryDx=0;entryDy=0;exitX=1.001;exitY=0.428;exitDx=0;exitDy=0;exitPerimeter=0;" parent="1" source="y3W_NTROxU9laTtbLP2f-42" target="y3W_NTROxU9laTtbLP2f-88" edge="1">
          <mxGeometry relative="1" as="geometry" />
        </mxCell>
        <mxCell id="y3W_NTROxU9laTtbLP2f-94" style="rounded=0;orthogonalLoop=1;jettySize=auto;html=1;entryX=0.003;entryY=0.592;entryDx=0;entryDy=0;entryPerimeter=0;exitX=1.002;exitY=0.442;exitDx=0;exitDy=0;exitPerimeter=0;" parent="1" source="y3W_NTROxU9laTtbLP2f-42" target="y3W_NTROxU9laTtbLP2f-90" edge="1">
          <mxGeometry relative="1" as="geometry" />
        </mxCell>
        <mxCell id="y3W_NTROxU9laTtbLP2f-42" value="IPRS_INF&lt;br&gt;(In Field)" style="rounded=0;whiteSpace=wrap;html=1;points=[[0,0.5,0,0,0],[1,0.5,0,0,0]];" parent="1" vertex="1">
          <mxGeometry x="337" y="1480" width="120" height="60" as="geometry" />
        </mxCell>
        <mxCell id="y3W_NTROxU9laTtbLP2f-112" style="rounded=0;orthogonalLoop=1;jettySize=auto;html=1;exitX=1;exitY=0.5;exitDx=0;exitDy=0;exitPerimeter=0;entryX=0;entryY=0.5;entryDx=0;entryDy=0;" parent="1" source="y3W_NTROxU9laTtbLP2f-57" target="y3W_NTROxU9laTtbLP2f-108" edge="1">
          <mxGeometry relative="1" as="geometry" />
        </mxCell>
        <mxCell id="y3W_NTROxU9laTtbLP2f-113" style="rounded=0;orthogonalLoop=1;jettySize=auto;html=1;entryX=0;entryY=0.5;entryDx=0;entryDy=0;exitX=1;exitY=0.5;exitDx=0;exitDy=0;exitPerimeter=0;" parent="1" source="y3W_NTROxU9laTtbLP2f-57" target="y3W_NTROxU9laTtbLP2f-109" edge="1">
          <mxGeometry relative="1" as="geometry" />
        </mxCell>
        <mxCell id="y3W_NTROxU9laTtbLP2f-114" style="rounded=0;orthogonalLoop=1;jettySize=auto;html=1;entryX=0;entryY=0.5;entryDx=0;entryDy=0;exitX=1;exitY=0.5;exitDx=0;exitDy=0;exitPerimeter=0;" parent="1" source="y3W_NTROxU9laTtbLP2f-57" target="y3W_NTROxU9laTtbLP2f-110" edge="1">
          <mxGeometry relative="1" as="geometry" />
        </mxCell>
        <mxCell id="y3W_NTROxU9laTtbLP2f-115" style="rounded=0;orthogonalLoop=1;jettySize=auto;html=1;entryX=0;entryY=0.5;entryDx=0;entryDy=0;exitX=1;exitY=0.5;exitDx=0;exitDy=0;exitPerimeter=0;" parent="1" source="y3W_NTROxU9laTtbLP2f-57" target="y3W_NTROxU9laTtbLP2f-111" edge="1">
          <mxGeometry relative="1" as="geometry" />
        </mxCell>
        <mxCell id="y3W_NTROxU9laTtbLP2f-57" value="IPRS_HCS&lt;br&gt;(Health Care Support)" style="rounded=0;whiteSpace=wrap;html=1;points=[[0,0.5,0,0,0],[1,0.5,0,0,0]];" parent="1" vertex="1">
          <mxGeometry x="337" y="1870" width="120" height="60" as="geometry" />
        </mxCell>
        <mxCell id="y3W_NTROxU9laTtbLP2f-74" value="IPRS_HR_d" style="rounded=0;whiteSpace=wrap;html=1;points=[[0,0.5,0,0,0]];" parent="1" vertex="1">
          <mxGeometry x="613" y="1250" width="100" height="20" as="geometry" />
        </mxCell>
        <mxCell id="y3W_NTROxU9laTtbLP2f-75" value="IPRS_HR_c" style="rounded=0;whiteSpace=wrap;html=1;points=[[0,0.5,0,0,0]];" parent="1" vertex="1">
          <mxGeometry x="613" y="1280" width="100" height="20" as="geometry" />
        </mxCell>
        <mxCell id="y3W_NTROxU9laTtbLP2f-76" value="IPRS_HR_a" style="rounded=0;whiteSpace=wrap;html=1;points=[[0,0.5,0,0,0]];" parent="1" vertex="1">
          <mxGeometry x="613" y="1310" width="100" height="20" as="geometry" />
        </mxCell>
        <mxCell id="y3W_NTROxU9laTtbLP2f-77" value="IPRS_HR_rc" style="rounded=0;whiteSpace=wrap;html=1;points=[[0,0.5,0,0,0]];" parent="1" vertex="1">
          <mxGeometry x="613" y="1340" width="100" height="20" as="geometry" />
        </mxCell>
        <mxCell id="y3W_NTROxU9laTtbLP2f-82" style="rounded=0;orthogonalLoop=1;jettySize=auto;html=1;exitX=1;exitY=0.5;exitDx=0;exitDy=0;entryX=0;entryY=0.5;entryDx=0;entryDy=0;entryPerimeter=0;" parent="1" source="y3W_NTROxU9laTtbLP2f-18" target="y3W_NTROxU9laTtbLP2f-77" edge="1">
          <mxGeometry relative="1" as="geometry" />
        </mxCell>
        <mxCell id="y3W_NTROxU9laTtbLP2f-83" value="IPRS_AL_c" style="rounded=0;whiteSpace=wrap;html=1;points=[[0,0.5,0,0,0]];" parent="1" vertex="1">
          <mxGeometry x="613" y="1380" width="100" height="20" as="geometry" />
        </mxCell>
        <mxCell id="y3W_NTROxU9laTtbLP2f-84" value="IPRS_AL_a" style="rounded=0;whiteSpace=wrap;html=1;points=[[0,0.5,0,0,0]];" parent="1" vertex="1">
          <mxGeometry x="613" y="1405" width="100" height="20" as="geometry" />
        </mxCell>
        <mxCell id="y3W_NTROxU9laTtbLP2f-85" value="IPRS_AL_rc" style="rounded=0;whiteSpace=wrap;html=1;points=[[0,0.5,0,0,0]];" parent="1" vertex="1">
          <mxGeometry x="613" y="1431" width="100" height="20" as="geometry" />
        </mxCell>
        <mxCell id="y3W_NTROxU9laTtbLP2f-88" value="IPRS_AL_c" style="rounded=0;whiteSpace=wrap;html=1;" parent="1" vertex="1">
          <mxGeometry x="613" y="1472.5" width="100" height="20" as="geometry" />
        </mxCell>
        <mxCell id="y3W_NTROxU9laTtbLP2f-89" value="IPRS_AL_a" style="rounded=0;whiteSpace=wrap;html=1;" parent="1" vertex="1">
          <mxGeometry x="613" y="1502.5" width="100" height="20" as="geometry" />
        </mxCell>
        <mxCell id="y3W_NTROxU9laTtbLP2f-90" value="IPRS_AL_rc" style="rounded=0;whiteSpace=wrap;html=1;" parent="1" vertex="1">
          <mxGeometry x="613" y="1527.5" width="100" height="20" as="geometry" />
        </mxCell>
        <mxCell id="y3W_NTROxU9laTtbLP2f-93" style="rounded=0;orthogonalLoop=1;jettySize=auto;html=1;entryX=-0.023;entryY=0.56;entryDx=0;entryDy=0;entryPerimeter=0;exitX=0.993;exitY=0.42;exitDx=0;exitDy=0;exitPerimeter=0;" parent="1" source="y3W_NTROxU9laTtbLP2f-42" target="y3W_NTROxU9laTtbLP2f-89" edge="1">
          <mxGeometry relative="1" as="geometry">
            <mxPoint x="458" y="1510" as="sourcePoint" />
          </mxGeometry>
        </mxCell>
        <mxCell id="y3W_NTROxU9laTtbLP2f-95" value="Hosting locations" style="text;html=1;strokeColor=none;fillColor=none;align=center;verticalAlign=middle;whiteSpace=wrap;rounded=0;fontStyle=1" parent="1" vertex="1">
          <mxGeometry x="315" y="165" width="150" height="30" as="geometry" />
        </mxCell>
        <mxCell id="y3W_NTROxU9laTtbLP2f-96" value="LOCAL" style="rounded=0;whiteSpace=wrap;html=1;" parent="1" vertex="1">
          <mxGeometry x="264.5" y="210" width="120" height="60" as="geometry" />
        </mxCell>
        <mxCell id="y3W_NTROxU9laTtbLP2f-97" value="CLOUD" style="rounded=0;whiteSpace=wrap;html=1;" parent="1" vertex="1">
          <mxGeometry x="400" y="210" width="120" height="60" as="geometry" />
        </mxCell>
        <mxCell id="y3W_NTROxU9laTtbLP2f-99" value="IPRS_PR_c" style="rounded=0;whiteSpace=wrap;html=1;points=[[0,0.5,0,0,0]];" parent="1" vertex="1">
          <mxGeometry x="613" y="1589.38" width="100" height="20" as="geometry" />
        </mxCell>
        <mxCell id="y3W_NTROxU9laTtbLP2f-100" value="IPRS_PR_a" style="rounded=0;whiteSpace=wrap;html=1;points=[[0,0.5,0,0,0]];" parent="1" vertex="1">
          <mxGeometry x="613" y="1614.38" width="100" height="20" as="geometry" />
        </mxCell>
        <mxCell id="y3W_NTROxU9laTtbLP2f-101" value="IPRS_PR_rc" style="rounded=0;whiteSpace=wrap;html=1;points=[[0,0.5,0,0,0]];" parent="1" vertex="1">
          <mxGeometry x="613" y="1640" width="100" height="20" as="geometry" />
        </mxCell>
        <mxCell id="y3W_NTROxU9laTtbLP2f-107" value="IPRS_EDU_r" style="rounded=0;whiteSpace=wrap;html=1;points=[[0,0.5,0,0,0]];" parent="1" vertex="1">
          <mxGeometry x="613" y="1800" width="100" height="20" as="geometry" />
        </mxCell>
        <mxCell id="y3W_NTROxU9laTtbLP2f-108" value="IPRS_HCS_d" style="rounded=0;whiteSpace=wrap;html=1;points=[[0,0.5,0,0,0]];" parent="1" vertex="1">
          <mxGeometry x="613" y="1845" width="100" height="20" as="geometry" />
        </mxCell>
        <mxCell id="y3W_NTROxU9laTtbLP2f-109" value="IPRS_HCS_c" style="rounded=0;whiteSpace=wrap;html=1;points=[[0,0.5,0,0,0]];" parent="1" vertex="1">
          <mxGeometry x="613" y="1875" width="100" height="20" as="geometry" />
        </mxCell>
        <mxCell id="y3W_NTROxU9laTtbLP2f-110" value="IPRS_HCS_a" style="rounded=0;whiteSpace=wrap;html=1;points=[[0,0.5,0,0,0]];" parent="1" vertex="1">
          <mxGeometry x="613" y="1905" width="100" height="20" as="geometry" />
        </mxCell>
        <mxCell id="y3W_NTROxU9laTtbLP2f-111" value="IPRS_HCS_rc" style="rounded=0;whiteSpace=wrap;html=1;points=[[0,0.5,0,0,0]];" parent="1" vertex="1">
          <mxGeometry x="613" y="1935" width="100" height="20" as="geometry" />
        </mxCell>
        <mxCell id="y3W_NTROxU9laTtbLP2f-119" value="IPRS_INS_d" style="rounded=0;whiteSpace=wrap;html=1;" parent="1" vertex="1">
          <mxGeometry x="613" y="2230" width="100" height="20" as="geometry" />
        </mxCell>
        <mxCell id="y3W_NTROxU9laTtbLP2f-120" value="IPRS_INS_c" style="rounded=0;whiteSpace=wrap;html=1;" parent="1" vertex="1">
          <mxGeometry x="613" y="2260" width="100" height="20" as="geometry" />
        </mxCell>
        <mxCell id="y3W_NTROxU9laTtbLP2f-121" value="IPRS_INS_a" style="rounded=0;whiteSpace=wrap;html=1;" parent="1" vertex="1">
          <mxGeometry x="613" y="2290" width="100" height="20" as="geometry" />
        </mxCell>
        <mxCell id="y3W_NTROxU9laTtbLP2f-122" value="IPRS_INS_rc" style="rounded=0;whiteSpace=wrap;html=1;" parent="1" vertex="1">
          <mxGeometry x="613" y="2320" width="100" height="20" as="geometry" />
        </mxCell>
        <mxCell id="y3W_NTROxU9laTtbLP2f-123" style="rounded=0;orthogonalLoop=1;jettySize=auto;html=1;entryX=0.004;entryY=0.608;entryDx=0;entryDy=0;entryPerimeter=0;exitX=1;exitY=0.5;exitDx=0;exitDy=0;" parent="1" source="y3W_NTROxU9laTtbLP2f-26" target="y3W_NTROxU9laTtbLP2f-119" edge="1">
          <mxGeometry relative="1" as="geometry" />
        </mxCell>
        <mxCell id="y3W_NTROxU9laTtbLP2f-127" value="IPRS_BEN_d" style="rounded=0;whiteSpace=wrap;html=1;" parent="1" vertex="1">
          <mxGeometry x="613" y="2375" width="100" height="20" as="geometry" />
        </mxCell>
        <mxCell id="y3W_NTROxU9laTtbLP2f-128" value="IPRS_BEN_c" style="rounded=0;whiteSpace=wrap;html=1;" parent="1" vertex="1">
          <mxGeometry x="613" y="2405" width="100" height="20" as="geometry" />
        </mxCell>
        <mxCell id="y3W_NTROxU9laTtbLP2f-129" value="IPRS_BEN_a" style="rounded=0;whiteSpace=wrap;html=1;" parent="1" vertex="1">
          <mxGeometry x="613" y="2435" width="100" height="20" as="geometry" />
        </mxCell>
        <mxCell id="y3W_NTROxU9laTtbLP2f-130" value="IPRS_BEN_rc" style="rounded=0;whiteSpace=wrap;html=1;" parent="1" vertex="1">
          <mxGeometry x="613" y="2465" width="100" height="20" as="geometry" />
        </mxCell>
        <mxCell id="y3W_NTROxU9laTtbLP2f-131" style="rounded=0;orthogonalLoop=1;jettySize=auto;html=1;entryX=-0.013;entryY=0.664;entryDx=0;entryDy=0;entryPerimeter=0;exitX=1;exitY=0.5;exitDx=0;exitDy=0;exitPerimeter=0;" parent="1" source="y3W_NTROxU9laTtbLP2f-31" target="y3W_NTROxU9laTtbLP2f-127" edge="1">
          <mxGeometry relative="1" as="geometry" />
        </mxCell>
        <mxCell id="y3W_NTROxU9laTtbLP2f-132" style="rounded=0;orthogonalLoop=1;jettySize=auto;html=1;entryX=0.007;entryY=0.594;entryDx=0;entryDy=0;entryPerimeter=0;exitX=1;exitY=0.5;exitDx=0;exitDy=0;exitPerimeter=0;" parent="1" source="y3W_NTROxU9laTtbLP2f-31" target="y3W_NTROxU9laTtbLP2f-128" edge="1">
          <mxGeometry relative="1" as="geometry" />
        </mxCell>
        <mxCell id="y3W_NTROxU9laTtbLP2f-135" value="IPRS_WKP_rc" style="rounded=0;whiteSpace=wrap;html=1;points=[[0,0.5,0,0,0]];" parent="1" vertex="1">
          <mxGeometry x="613" y="1985" width="100" height="20" as="geometry" />
        </mxCell>
        <mxCell id="y3W_NTROxU9laTtbLP2f-136" value="IPRS_PAY_d" style="rounded=0;whiteSpace=wrap;html=1;" parent="1" vertex="1">
          <mxGeometry x="613" y="2553" width="100" height="20" as="geometry" />
        </mxCell>
        <mxCell id="y3W_NTROxU9laTtbLP2f-137" value="IPRS_PAY_c" style="rounded=0;whiteSpace=wrap;html=1;" parent="1" vertex="1">
          <mxGeometry x="613" y="2583" width="100" height="20" as="geometry" />
        </mxCell>
        <mxCell id="y3W_NTROxU9laTtbLP2f-138" value="IPRS_PAY_a" style="rounded=0;whiteSpace=wrap;html=1;" parent="1" vertex="1">
          <mxGeometry x="613" y="2613" width="100" height="20" as="geometry" />
        </mxCell>
        <mxCell id="y3W_NTROxU9laTtbLP2f-143" style="rounded=0;orthogonalLoop=1;jettySize=auto;html=1;entryX=0;entryY=0.75;entryDx=0;entryDy=0;exitX=1;exitY=0.5;exitDx=0;exitDy=0;exitPerimeter=0;" parent="1" source="y3W_NTROxU9laTtbLP2f-146" target="y3W_NTROxU9laTtbLP2f-147" edge="1">
          <mxGeometry relative="1" as="geometry" />
        </mxCell>
        <mxCell id="y3W_NTROxU9laTtbLP2f-144" style="rounded=0;orthogonalLoop=1;jettySize=auto;html=1;entryX=0;entryY=0.5;entryDx=0;entryDy=0;exitX=1;exitY=0.5;exitDx=0;exitDy=0;exitPerimeter=0;" parent="1" source="y3W_NTROxU9laTtbLP2f-146" target="y3W_NTROxU9laTtbLP2f-148" edge="1">
          <mxGeometry relative="1" as="geometry" />
        </mxCell>
        <mxCell id="y3W_NTROxU9laTtbLP2f-145" style="rounded=0;orthogonalLoop=1;jettySize=auto;html=1;exitX=1;exitY=0.5;exitDx=0;exitDy=0;exitPerimeter=0;" parent="1" source="y3W_NTROxU9laTtbLP2f-146" target="y3W_NTROxU9laTtbLP2f-149" edge="1">
          <mxGeometry relative="1" as="geometry" />
        </mxCell>
        <mxCell id="y3W_NTROxU9laTtbLP2f-146" value="IPRS_ACC&lt;br&gt;(Accounting)" style="rounded=0;whiteSpace=wrap;html=1;points=[[0,0.25,0,0,0],[0,0.5,0,0,0],[1,0.25,0,0,0],[1,0.5,0,0,0]];" parent="1" vertex="1">
          <mxGeometry x="337" y="2699" width="120" height="60" as="geometry" />
        </mxCell>
        <mxCell id="y3W_NTROxU9laTtbLP2f-147" value="IPRS_ACC_d" style="rounded=0;whiteSpace=wrap;html=1;" parent="1" vertex="1">
          <mxGeometry x="613" y="2689" width="100" height="20" as="geometry" />
        </mxCell>
        <mxCell id="y3W_NTROxU9laTtbLP2f-148" value="IPRS_ACC_c" style="rounded=0;whiteSpace=wrap;html=1;" parent="1" vertex="1">
          <mxGeometry x="613" y="2719" width="100" height="20" as="geometry" />
        </mxCell>
        <mxCell id="y3W_NTROxU9laTtbLP2f-149" value="IPRS_ACC_a" style="rounded=0;whiteSpace=wrap;html=1;" parent="1" vertex="1">
          <mxGeometry x="613" y="2749" width="100" height="20" as="geometry" />
        </mxCell>
        <mxCell id="y3W_NTROxU9laTtbLP2f-150" style="rounded=0;orthogonalLoop=1;jettySize=auto;html=1;entryX=0;entryY=0.75;entryDx=0;entryDy=0;" parent="1" source="y3W_NTROxU9laTtbLP2f-153" target="y3W_NTROxU9laTtbLP2f-154" edge="1">
          <mxGeometry relative="1" as="geometry" />
        </mxCell>
        <mxCell id="y3W_NTROxU9laTtbLP2f-151" style="rounded=0;orthogonalLoop=1;jettySize=auto;html=1;entryX=0;entryY=0.5;entryDx=0;entryDy=0;" parent="1" source="y3W_NTROxU9laTtbLP2f-153" target="y3W_NTROxU9laTtbLP2f-155" edge="1">
          <mxGeometry relative="1" as="geometry" />
        </mxCell>
        <mxCell id="y3W_NTROxU9laTtbLP2f-152" style="rounded=0;orthogonalLoop=1;jettySize=auto;html=1;" parent="1" source="y3W_NTROxU9laTtbLP2f-153" target="y3W_NTROxU9laTtbLP2f-156" edge="1">
          <mxGeometry relative="1" as="geometry" />
        </mxCell>
        <mxCell id="y3W_NTROxU9laTtbLP2f-153" value="IPRS_SHP&lt;br&gt;(Shipments)" style="rounded=0;whiteSpace=wrap;html=1;points=[[0,0.5,0,0,0],[1,0.5,0,0,0]];" parent="1" vertex="1">
          <mxGeometry x="337" y="2800" width="120" height="60" as="geometry" />
        </mxCell>
        <mxCell id="y3W_NTROxU9laTtbLP2f-154" value="IPRS_SHP_d" style="rounded=0;whiteSpace=wrap;html=1;" parent="1" vertex="1">
          <mxGeometry x="613" y="2790" width="100" height="20" as="geometry" />
        </mxCell>
        <mxCell id="y3W_NTROxU9laTtbLP2f-155" value="IPRS_SHP_c" style="rounded=0;whiteSpace=wrap;html=1;" parent="1" vertex="1">
          <mxGeometry x="613" y="2820" width="100" height="20" as="geometry" />
        </mxCell>
        <mxCell id="y3W_NTROxU9laTtbLP2f-156" value="IPRS_SHP_a" style="rounded=0;whiteSpace=wrap;html=1;" parent="1" vertex="1">
          <mxGeometry x="613" y="2850" width="100" height="20" as="geometry" />
        </mxCell>
        <mxCell id="y3W_NTROxU9laTtbLP2f-158" value="Users" style="text;html=1;strokeColor=none;fillColor=none;align=center;verticalAlign=middle;whiteSpace=wrap;rounded=0;fontStyle=1;fontSize=14;" parent="1" vertex="1">
          <mxGeometry x="144.5" y="1210" width="50" height="10" as="geometry" />
        </mxCell>
        <mxCell id="y3W_NTROxU9laTtbLP2f-164" style="rounded=0;orthogonalLoop=1;jettySize=auto;html=1;entryX=0;entryY=0.5;entryDx=0;entryDy=0;exitX=1;exitY=0.5;exitDx=0;exitDy=0;" parent="1" source="y3W_NTROxU9laTtbLP2f-160" target="y3W_NTROxU9laTtbLP2f-18" edge="1">
          <mxGeometry relative="1" as="geometry">
            <mxPoint x="248" y="1280" as="sourcePoint" />
          </mxGeometry>
        </mxCell>
        <mxCell id="y3W_NTROxU9laTtbLP2f-160" value="Rebecca Wilhelm" style="rounded=0;whiteSpace=wrap;html=1;points=[[1,0.5,0,0,0]];" parent="1" vertex="1">
          <mxGeometry x="144.5" y="1245" width="120" height="30" as="geometry" />
        </mxCell>
        <mxCell id="y3W_NTROxU9laTtbLP2f-165" style="rounded=0;orthogonalLoop=1;jettySize=auto;html=1;entryX=0;entryY=0.5;entryDx=0;entryDy=0;exitX=1;exitY=0.5;exitDx=0;exitDy=0;" parent="1" source="y3W_NTROxU9laTtbLP2f-161" target="y3W_NTROxU9laTtbLP2f-18" edge="1">
          <mxGeometry relative="1" as="geometry" />
        </mxCell>
        <mxCell id="y3W_NTROxU9laTtbLP2f-161" value="Annelee Tagalog" style="rounded=0;whiteSpace=wrap;html=1;points=[[1,0.5,0,0,0]];" parent="1" vertex="1">
          <mxGeometry x="144.5" y="1288.75" width="120" height="30" as="geometry" />
        </mxCell>
        <mxCell id="y3W_NTROxU9laTtbLP2f-166" style="rounded=0;orthogonalLoop=1;jettySize=auto;html=1;entryX=0;entryY=0.5;entryDx=0;entryDy=0;exitX=1;exitY=0.5;exitDx=0;exitDy=0;exitPerimeter=0;" parent="1" source="y3W_NTROxU9laTtbLP2f-162" target="y3W_NTROxU9laTtbLP2f-18" edge="1">
          <mxGeometry relative="1" as="geometry" />
        </mxCell>
        <mxCell id="y3W_NTROxU9laTtbLP2f-162" value="Susan Wolfe" style="rounded=0;whiteSpace=wrap;html=1;points=[[1,0.5,0,0,0]];" parent="1" vertex="1">
          <mxGeometry x="144.5" y="1333.75" width="120" height="30" as="geometry" />
        </mxCell>
        <mxCell id="y3W_NTROxU9laTtbLP2f-169" style="rounded=0;orthogonalLoop=1;jettySize=auto;html=1;" parent="1" source="y3W_NTROxU9laTtbLP2f-167" target="y3W_NTROxU9laTtbLP2f-22" edge="1">
          <mxGeometry relative="1" as="geometry" />
        </mxCell>
        <mxCell id="y3W_NTROxU9laTtbLP2f-167" value="Jacqueline Kuhn" style="rounded=0;whiteSpace=wrap;html=1;" parent="1" vertex="1">
          <mxGeometry x="144.5" y="1395" width="120" height="30" as="geometry" />
        </mxCell>
        <mxCell id="y3W_NTROxU9laTtbLP2f-171" style="rounded=0;orthogonalLoop=1;jettySize=auto;html=1;entryX=0;entryY=0.5;entryDx=0;entryDy=0;entryPerimeter=0;" parent="1" source="y3W_NTROxU9laTtbLP2f-168" target="y3W_NTROxU9laTtbLP2f-42" edge="1">
          <mxGeometry relative="1" as="geometry">
            <mxPoint x="330" y="1510" as="targetPoint" />
          </mxGeometry>
        </mxCell>
        <mxCell id="y3W_NTROxU9laTtbLP2f-172" style="rounded=0;orthogonalLoop=1;jettySize=auto;html=1;entryX=0;entryY=0.5;entryDx=0;entryDy=0;exitX=1;exitY=0.5;exitDx=0;exitDy=0;" parent="1" source="y3W_NTROxU9laTtbLP2f-168" target="y3W_NTROxU9laTtbLP2f-22" edge="1">
          <mxGeometry relative="1" as="geometry" />
        </mxCell>
        <mxCell id="y3W_NTROxU9laTtbLP2f-168" value="Sharmathi Shadrach" style="rounded=0;whiteSpace=wrap;html=1;points=[[1,0.5,0,0,0]];" parent="1" vertex="1">
          <mxGeometry x="144.5" y="1495" width="120" height="30" as="geometry" />
        </mxCell>
        <mxCell id="y3W_NTROxU9laTtbLP2f-170" style="rounded=0;orthogonalLoop=1;jettySize=auto;html=1;entryX=0;entryY=0.5;entryDx=0;entryDy=0;entryPerimeter=0;exitX=1;exitY=0.5;exitDx=0;exitDy=0;" parent="1" source="y3W_NTROxU9laTtbLP2f-167" target="y3W_NTROxU9laTtbLP2f-42" edge="1">
          <mxGeometry relative="1" as="geometry" />
        </mxCell>
        <mxCell id="y3W_NTROxU9laTtbLP2f-174" style="rounded=0;orthogonalLoop=1;jettySize=auto;html=1;" parent="1" source="y3W_NTROxU9laTtbLP2f-173" target="y3W_NTROxU9laTtbLP2f-24" edge="1">
          <mxGeometry relative="1" as="geometry" />
        </mxCell>
        <mxCell id="y3W_NTROxU9laTtbLP2f-173" value="Darling Gregory" style="rounded=0;whiteSpace=wrap;html=1;" parent="1" vertex="1">
          <mxGeometry x="144.5" y="1609.38" width="120" height="30" as="geometry" />
        </mxCell>
        <mxCell id="y3W_NTROxU9laTtbLP2f-178" style="rounded=0;orthogonalLoop=1;jettySize=auto;html=1;exitX=1;exitY=0.5;exitDx=0;exitDy=0;exitPerimeter=0;entryX=0;entryY=0.5;entryDx=0;entryDy=0;entryPerimeter=0;" parent="1" source="y3W_NTROxU9laTtbLP2f-176" target="y3W_NTROxU9laTtbLP2f-25" edge="1">
          <mxGeometry relative="1" as="geometry">
            <mxPoint x="320" y="1710" as="targetPoint" />
          </mxGeometry>
        </mxCell>
        <mxCell id="y3W_NTROxU9laTtbLP2f-176" value="Samuel Hernandez" style="rounded=0;whiteSpace=wrap;html=1;points=[[1,0.5,0,0,0]];" parent="1" vertex="1">
          <mxGeometry x="144.5" y="1684.38" width="120" height="30" as="geometry" />
        </mxCell>
        <mxCell id="y3W_NTROxU9laTtbLP2f-179" style="rounded=0;orthogonalLoop=1;jettySize=auto;html=1;entryX=0;entryY=0.5;entryDx=0;entryDy=0;entryPerimeter=0;" parent="1" source="y3W_NTROxU9laTtbLP2f-177" target="y3W_NTROxU9laTtbLP2f-25" edge="1">
          <mxGeometry relative="1" as="geometry" />
        </mxCell>
        <mxCell id="y3W_NTROxU9laTtbLP2f-177" value="Johnson Ram" style="rounded=0;whiteSpace=wrap;html=1;" parent="1" vertex="1">
          <mxGeometry x="144.5" y="1719.38" width="120" height="30" as="geometry" />
        </mxCell>
        <mxCell id="y3W_NTROxU9laTtbLP2f-182" style="rounded=0;orthogonalLoop=1;jettySize=auto;html=1;exitX=1;exitY=0.5;exitDx=0;exitDy=0;entryX=0;entryY=0.5;entryDx=0;entryDy=0;entryPerimeter=0;" parent="1" source="y3W_NTROxU9laTtbLP2f-180" target="y3W_NTROxU9laTtbLP2f-57" edge="1">
          <mxGeometry relative="1" as="geometry" />
        </mxCell>
        <mxCell id="y3W_NTROxU9laTtbLP2f-180" value="Sarah Kannanaikkel" style="rounded=0;whiteSpace=wrap;html=1;points=[[1,0.5,0,0,0]];" parent="1" vertex="1">
          <mxGeometry x="144.5" y="1885" width="120" height="30" as="geometry" />
        </mxCell>
        <mxCell id="y3W_NTROxU9laTtbLP2f-184" style="rounded=0;orthogonalLoop=1;jettySize=auto;html=1;entryX=0;entryY=0.5;entryDx=0;entryDy=0;exitX=1;exitY=0.5;exitDx=0;exitDy=0;" parent="1" source="y3W_NTROxU9laTtbLP2f-183" target="y3W_NTROxU9laTtbLP2f-26" edge="1">
          <mxGeometry relative="1" as="geometry" />
        </mxCell>
        <mxCell id="y3W_NTROxU9laTtbLP2f-185" style="rounded=0;orthogonalLoop=1;jettySize=auto;html=1;exitX=1;exitY=0.5;exitDx=0;exitDy=0;entryX=0;entryY=0.5;entryDx=0;entryDy=0;entryPerimeter=0;" parent="1" source="y3W_NTROxU9laTtbLP2f-183" target="y3W_NTROxU9laTtbLP2f-31" edge="1">
          <mxGeometry relative="1" as="geometry" />
        </mxCell>
        <mxCell id="y3W_NTROxU9laTtbLP2f-183" value="Gertha Martinez" style="rounded=0;whiteSpace=wrap;html=1;points=[[1,0.5,0,0,0]];" parent="1" vertex="1">
          <mxGeometry x="144.5" y="2365" width="120" height="30" as="geometry" />
        </mxCell>
        <mxCell id="y3W_NTROxU9laTtbLP2f-186" style="rounded=0;orthogonalLoop=1;jettySize=auto;html=1;entryX=-0.012;entryY=0.657;entryDx=0;entryDy=0;entryPerimeter=0;exitX=1;exitY=0.5;exitDx=0;exitDy=0;" parent="1" source="y3W_NTROxU9laTtbLP2f-180" target="y3W_NTROxU9laTtbLP2f-30" edge="1">
          <mxGeometry relative="1" as="geometry" />
        </mxCell>
        <mxCell id="y3W_NTROxU9laTtbLP2f-189" style="rounded=0;orthogonalLoop=1;jettySize=auto;html=1;entryX=0;entryY=0.5;entryDx=0;entryDy=0;entryPerimeter=0;exitX=1;exitY=0.5;exitDx=0;exitDy=0;exitPerimeter=0;" parent="1" source="y3W_NTROxU9laTtbLP2f-188" target="y3W_NTROxU9laTtbLP2f-27" edge="1">
          <mxGeometry relative="1" as="geometry" />
        </mxCell>
        <mxCell id="y3W_NTROxU9laTtbLP2f-188" value="Richard Jacobson" style="rounded=0;whiteSpace=wrap;html=1;points=[[1,0.5,0,0,0]];" parent="1" vertex="1">
          <mxGeometry x="130" y="2563" width="120" height="30" as="geometry" />
        </mxCell>
        <mxCell id="y3W_NTROxU9laTtbLP2f-191" style="rounded=0;orthogonalLoop=1;jettySize=auto;html=1;entryX=0;entryY=0.5;entryDx=0;entryDy=0;entryPerimeter=0;exitX=1;exitY=0.5;exitDx=0;exitDy=0;exitPerimeter=0;" parent="1" source="y3W_NTROxU9laTtbLP2f-190" target="y3W_NTROxU9laTtbLP2f-27" edge="1">
          <mxGeometry relative="1" as="geometry" />
        </mxCell>
        <mxCell id="y3W_NTROxU9laTtbLP2f-190" value="Muriel Bello" style="rounded=0;whiteSpace=wrap;html=1;points=[[1,0.5,0,0,0]];" parent="1" vertex="1">
          <mxGeometry x="130" y="2600" width="120" height="30" as="geometry" />
        </mxCell>
        <mxCell id="y3W_NTROxU9laTtbLP2f-193" style="rounded=0;orthogonalLoop=1;jettySize=auto;html=1;entryX=0;entryY=0.5;entryDx=0;entryDy=0;exitX=1;exitY=0.5;exitDx=0;exitDy=0;exitPerimeter=0;entryPerimeter=0;" parent="1" source="y3W_NTROxU9laTtbLP2f-192" target="y3W_NTROxU9laTtbLP2f-146" edge="1">
          <mxGeometry relative="1" as="geometry" />
        </mxCell>
        <mxCell id="y3W_NTROxU9laTtbLP2f-194" style="rounded=0;orthogonalLoop=1;jettySize=auto;html=1;exitX=1;exitY=0.5;exitDx=0;exitDy=0;exitPerimeter=0;entryX=0;entryY=0.5;entryDx=0;entryDy=0;entryPerimeter=0;" parent="1" source="y3W_NTROxU9laTtbLP2f-192" target="y3W_NTROxU9laTtbLP2f-153" edge="1">
          <mxGeometry relative="1" as="geometry" />
        </mxCell>
        <mxCell id="y3W_NTROxU9laTtbLP2f-192" value="Laurie Wilson" style="rounded=0;whiteSpace=wrap;html=1;points=[[1,0.5,0,0,0]];" parent="1" vertex="1">
          <mxGeometry x="130" y="2760" width="120" height="30" as="geometry" />
        </mxCell>
        <mxCell id="y3W_NTROxU9laTtbLP2f-200" style="rounded=0;orthogonalLoop=1;jettySize=auto;html=1;entryX=0;entryY=0.5;entryDx=0;entryDy=0;exitX=1;exitY=0.5;exitDx=0;exitDy=0;exitPerimeter=0;entryPerimeter=0;" parent="1" source="y3W_NTROxU9laTtbLP2f-195" target="y3W_NTROxU9laTtbLP2f-199" edge="1">
          <mxGeometry relative="1" as="geometry" />
        </mxCell>
        <mxCell id="y3W_NTROxU9laTtbLP2f-195" value="Lissy Park" style="rounded=0;whiteSpace=wrap;html=1;points=[[1,0.5,0,0,0]];" parent="1" vertex="1">
          <mxGeometry x="130" y="2927.5" width="120" height="30" as="geometry" />
        </mxCell>
        <mxCell id="y3W_NTROxU9laTtbLP2f-201" style="rounded=0;orthogonalLoop=1;jettySize=auto;html=1;entryX=0;entryY=0.5;entryDx=0;entryDy=0;entryPerimeter=0;" parent="1" source="y3W_NTROxU9laTtbLP2f-196" target="y3W_NTROxU9laTtbLP2f-199" edge="1">
          <mxGeometry relative="1" as="geometry" />
        </mxCell>
        <mxCell id="y3W_NTROxU9laTtbLP2f-196" value="Karen Porter" style="rounded=0;whiteSpace=wrap;html=1;points=[[1,0.5,0,0,0]];" parent="1" vertex="1">
          <mxGeometry x="130" y="2972.5" width="120" height="30" as="geometry" />
        </mxCell>
        <mxCell id="y3W_NTROxU9laTtbLP2f-202" style="rounded=0;orthogonalLoop=1;jettySize=auto;html=1;entryX=0;entryY=0.5;entryDx=0;entryDy=0;entryPerimeter=0;exitX=1;exitY=0.5;exitDx=0;exitDy=0;exitPerimeter=0;" parent="1" source="y3W_NTROxU9laTtbLP2f-198" edge="1" target="y3W_NTROxU9laTtbLP2f-199">
          <mxGeometry relative="1" as="geometry">
            <mxPoint x="373" y="2980" as="targetPoint" />
          </mxGeometry>
        </mxCell>
        <mxCell id="y3W_NTROxU9laTtbLP2f-198" value="German Lust" style="rounded=0;whiteSpace=wrap;html=1;points=[[1,0.5,0,0,0]];" parent="1" vertex="1">
          <mxGeometry x="130" y="3022.5" width="120" height="30" as="geometry" />
        </mxCell>
        <mxCell id="y3W_NTROxU9laTtbLP2f-211" style="rounded=0;orthogonalLoop=1;jettySize=auto;html=1;entryX=0.001;entryY=0.664;entryDx=0;entryDy=0;entryPerimeter=0;" parent="1" source="y3W_NTROxU9laTtbLP2f-199" target="y3W_NTROxU9laTtbLP2f-210" edge="1">
          <mxGeometry relative="1" as="geometry" />
        </mxCell>
        <mxCell id="y3W_NTROxU9laTtbLP2f-212" style="rounded=0;orthogonalLoop=1;jettySize=auto;html=1;entryX=0;entryY=0.5;entryDx=0;entryDy=0;" parent="1" source="y3W_NTROxU9laTtbLP2f-199" target="y3W_NTROxU9laTtbLP2f-206" edge="1">
          <mxGeometry relative="1" as="geometry" />
        </mxCell>
        <mxCell id="y3W_NTROxU9laTtbLP2f-214" style="rounded=0;orthogonalLoop=1;jettySize=auto;html=1;" parent="1" source="y3W_NTROxU9laTtbLP2f-199" target="y3W_NTROxU9laTtbLP2f-208" edge="1">
          <mxGeometry relative="1" as="geometry" />
        </mxCell>
        <mxCell id="y3W_NTROxU9laTtbLP2f-199" value="IPRS_ADM&lt;br&gt;(Administration)" style="rounded=0;whiteSpace=wrap;html=1;points=[[0,0.5,0,0,0],[1,0.5,0,0,0]];" parent="1" vertex="1">
          <mxGeometry x="337" y="2957.5" width="120" height="60" as="geometry" />
        </mxCell>
        <mxCell id="y3W_NTROxU9laTtbLP2f-221" style="rounded=0;orthogonalLoop=1;jettySize=auto;html=1;" parent="1" source="y3W_NTROxU9laTtbLP2f-203" target="y3W_NTROxU9laTtbLP2f-217" edge="1">
          <mxGeometry relative="1" as="geometry" />
        </mxCell>
        <mxCell id="y3W_NTROxU9laTtbLP2f-222" style="rounded=0;orthogonalLoop=1;jettySize=auto;html=1;" parent="1" source="y3W_NTROxU9laTtbLP2f-203" target="y3W_NTROxU9laTtbLP2f-219" edge="1">
          <mxGeometry relative="1" as="geometry" />
        </mxCell>
        <mxCell id="y3W_NTROxU9laTtbLP2f-203" value="IPRS_AA&lt;br&gt;(Administrative Assistant)" style="rounded=0;whiteSpace=wrap;html=1;points=[[0,0.5,0,0,0],[1,0.5,0,0,0]];" parent="1" vertex="1">
          <mxGeometry x="337" y="3105" width="120" height="60" as="geometry" />
        </mxCell>
        <mxCell id="y3W_NTROxU9laTtbLP2f-204" value="Tanya Muganda" style="rounded=0;whiteSpace=wrap;html=1;points=[[1,0.5,0,0,0]];" parent="1" vertex="1">
          <mxGeometry x="130" y="3120" width="120" height="30" as="geometry" />
        </mxCell>
        <mxCell id="y3W_NTROxU9laTtbLP2f-206" value="IPRS_ADM_d" style="rounded=0;whiteSpace=wrap;html=1;" parent="1" vertex="1">
          <mxGeometry x="613" y="2937.5" width="100" height="20" as="geometry" />
        </mxCell>
        <mxCell id="y3W_NTROxU9laTtbLP2f-207" value="IPRS_ADM_c" style="rounded=0;whiteSpace=wrap;html=1;" parent="1" vertex="1">
          <mxGeometry x="613" y="2967.5" width="100" height="20" as="geometry" />
        </mxCell>
        <mxCell id="y3W_NTROxU9laTtbLP2f-208" value="IPRS_ADM_a" style="rounded=0;whiteSpace=wrap;html=1;" parent="1" vertex="1">
          <mxGeometry x="613" y="2997.5" width="100" height="20" as="geometry" />
        </mxCell>
        <mxCell id="y3W_NTROxU9laTtbLP2f-209" value="IPRS_ADM_rc" style="rounded=0;whiteSpace=wrap;html=1;" parent="1" vertex="1">
          <mxGeometry x="613" y="3027.5" width="100" height="20" as="geometry" />
        </mxCell>
        <mxCell id="y3W_NTROxU9laTtbLP2f-210" value="IPRS_ADM_m" style="rounded=0;whiteSpace=wrap;html=1;" parent="1" vertex="1">
          <mxGeometry x="613" y="2912.5" width="100" height="20" as="geometry" />
        </mxCell>
        <mxCell id="y3W_NTROxU9laTtbLP2f-213" style="rounded=0;orthogonalLoop=1;jettySize=auto;html=1;entryX=0.015;entryY=0.594;entryDx=0;entryDy=0;entryPerimeter=0;" parent="1" source="y3W_NTROxU9laTtbLP2f-199" target="y3W_NTROxU9laTtbLP2f-207" edge="1">
          <mxGeometry relative="1" as="geometry" />
        </mxCell>
        <mxCell id="y3W_NTROxU9laTtbLP2f-215" style="rounded=0;orthogonalLoop=1;jettySize=auto;html=1;entryX=-0.002;entryY=0.65;entryDx=0;entryDy=0;entryPerimeter=0;exitX=0.999;exitY=0.837;exitDx=0;exitDy=0;exitPerimeter=0;" parent="1" source="y3W_NTROxU9laTtbLP2f-199" target="y3W_NTROxU9laTtbLP2f-209" edge="1">
          <mxGeometry relative="1" as="geometry" />
        </mxCell>
        <mxCell id="y3W_NTROxU9laTtbLP2f-217" value="IPRS_AA_c" style="rounded=0;whiteSpace=wrap;html=1;" parent="1" vertex="1">
          <mxGeometry x="613" y="3105" width="100" height="20" as="geometry" />
        </mxCell>
        <mxCell id="y3W_NTROxU9laTtbLP2f-219" value="IPRS_AA_rc" style="rounded=0;whiteSpace=wrap;html=1;" parent="1" vertex="1">
          <mxGeometry x="613" y="3130" width="100" height="20" as="geometry" />
        </mxCell>
        <mxCell id="x1B75hsggQtuE2KGZh8V-2" style="rounded=0;orthogonalLoop=1;jettySize=auto;html=1;entryX=0;entryY=0.5;entryDx=0;entryDy=0;entryPerimeter=0;exitX=1;exitY=0.5;exitDx=0;exitDy=0;exitPerimeter=0;" edge="1" parent="1" source="y3W_NTROxU9laTtbLP2f-22" target="y3W_NTROxU9laTtbLP2f-83">
          <mxGeometry relative="1" as="geometry" />
        </mxCell>
        <mxCell id="x1B75hsggQtuE2KGZh8V-3" style="rounded=0;orthogonalLoop=1;jettySize=auto;html=1;entryX=0;entryY=0.5;entryDx=0;entryDy=0;entryPerimeter=0;exitX=1;exitY=0.5;exitDx=0;exitDy=0;exitPerimeter=0;" edge="1" parent="1" source="y3W_NTROxU9laTtbLP2f-22" target="y3W_NTROxU9laTtbLP2f-84">
          <mxGeometry relative="1" as="geometry" />
        </mxCell>
        <mxCell id="x1B75hsggQtuE2KGZh8V-4" style="rounded=0;orthogonalLoop=1;jettySize=auto;html=1;entryX=-0.007;entryY=0.493;entryDx=0;entryDy=0;entryPerimeter=0;exitX=1;exitY=0.5;exitDx=0;exitDy=0;exitPerimeter=0;" edge="1" parent="1" source="y3W_NTROxU9laTtbLP2f-22" target="y3W_NTROxU9laTtbLP2f-85">
          <mxGeometry relative="1" as="geometry" />
        </mxCell>
        <mxCell id="x1B75hsggQtuE2KGZh8V-7" value="IPRS_IT_f" style="rounded=0;whiteSpace=wrap;html=1;points=[[0,0.5,0,0,0]];" vertex="1" parent="1">
          <mxGeometry x="613" y="1691.88" width="100" height="20" as="geometry" />
        </mxCell>
        <mxCell id="x1B75hsggQtuE2KGZh8V-8" value="IPRS_IT_rc" style="rounded=0;whiteSpace=wrap;html=1;points=[[0,0.5,0,0,0]];" vertex="1" parent="1">
          <mxGeometry x="613" y="1716.88" width="100" height="20" as="geometry" />
        </mxCell>
        <mxCell id="x1B75hsggQtuE2KGZh8V-9" style="rounded=0;orthogonalLoop=1;jettySize=auto;html=1;entryX=-0.002;entryY=0.455;entryDx=0;entryDy=0;entryPerimeter=0;exitX=1;exitY=0.5;exitDx=0;exitDy=0;exitPerimeter=0;" edge="1" parent="1" source="y3W_NTROxU9laTtbLP2f-180" target="y3W_NTROxU9laTtbLP2f-32">
          <mxGeometry relative="1" as="geometry" />
        </mxCell>
        <mxCell id="x1B75hsggQtuE2KGZh8V-14" style="rounded=0;orthogonalLoop=1;jettySize=auto;html=1;entryX=0;entryY=0.5;entryDx=0;entryDy=0;entryPerimeter=0;" edge="1" parent="1" source="y3W_NTROxU9laTtbLP2f-204" target="y3W_NTROxU9laTtbLP2f-203">
          <mxGeometry relative="1" as="geometry" />
        </mxCell>
        <mxCell id="x1B75hsggQtuE2KGZh8V-15" value="Total people: 17" style="text;html=1;strokeColor=none;fillColor=none;align=center;verticalAlign=middle;whiteSpace=wrap;rounded=0;" vertex="1" parent="1">
          <mxGeometry x="90" y="3220" width="60" height="30" as="geometry" />
        </mxCell>
        <mxCell id="x1B75hsggQtuE2KGZh8V-16" value="&lt;span style=&quot;color: rgb(240, 240, 240); font-family: Helvetica; font-size: 12px; font-style: normal; font-variant-ligatures: normal; font-variant-caps: normal; font-weight: 400; letter-spacing: normal; orphans: 2; text-align: center; text-indent: 0px; text-transform: none; widows: 2; word-spacing: 0px; -webkit-text-stroke-width: 0px; background-color: rgb(27, 29, 30); text-decoration-thickness: initial; text-decoration-style: initial; text-decoration-color: initial; float: none; display: inline !important;&quot;&gt;Total teams: 14&lt;/span&gt;" style="text;whiteSpace=wrap;html=1;" vertex="1" parent="1">
          <mxGeometry x="355" y="3220" width="100" height="40" as="geometry" />
        </mxCell>
        <mxCell id="x1B75hsggQtuE2KGZh8V-17" value="&lt;span style=&quot;color: rgb(240, 240, 240); font-family: Helvetica; font-size: 12px; font-style: normal; font-variant-ligatures: normal; font-variant-caps: normal; font-weight: 400; letter-spacing: normal; orphans: 2; text-align: center; text-indent: 0px; text-transform: none; widows: 2; word-spacing: 0px; -webkit-text-stroke-width: 0px; background-color: rgb(27, 29, 30); text-decoration-thickness: initial; text-decoration-style: initial; text-decoration-color: initial; float: none; display: inline !important;&quot;&gt;Total permission groups: 45&lt;/span&gt;" style="text;whiteSpace=wrap;html=1;" vertex="1" parent="1">
          <mxGeometry x="600" y="3220" width="100" height="40" as="geometry" />
        </mxCell>
      </root>
    </mxGraphModel>
  </diagram>
</mxfile>
